# xmcd
#
# Track frame offsets:
#	150
#	18659
#	34463
#	53516
#	68989
#	88191
#	113772
#	143139
#	176494
#	199677
#	217583
#	250320
#	271151
#	292923
#
# Disc length: 4206 seconds
#
# Revision: 0
# Processed by: cddbd v1.5.2PL0 Copyright (c) Steve Scherf et al.
# Submitted via: EasyCDDAExtractor 15.3.0.1
#
DISCID=c6106c0e
DTITLE=Yuri - El Concierto
DYEAR=2009
DGENRE=Latin
TTITLE0=Mueve Tu Cuerpo
TTITLE1=Yo Te Pido Amor
TTITLE2=Que Te Pasa
TTITLE3=Tiempos Mejores
TTITLE4=Y Tu Como Estas
TTITLE5=Estoy Enamorada
TTITLE6=El Espejo
TTITLE7=Pop 90's (Volver A Empezar, Asi Es La Vida, Mi Vecina, Hombres Al Bord
TTITLE7=e De Un Ataque De Celos)
TTITLE8=Maldita Primavera
TTITLE9=Es Ella Mas Que Yo
TTITLE10=Pop Baladas (No Puedo Mas, Ya No Vives En Mi, Un Corazon Herido)
TTITLE11=El Apagon
TTITLE12=Cuando Baja La Marea
TTITLE13=Hola
EXTD=
EXTT0=
EXTT1=
EXTT2=
EXTT3=
EXTT4=
EXTT5=
EXTT6=
EXTT7=
EXTT8=
EXTT9=
EXTT10=
EXTT11=
EXTT12=
EXTT13=
PLAYORDER=
